<?xml version="1.0" encoding="UTF-8" standalone="no"?>
<!-- Created with Inkscape (http://www.inkscape.org/) -->

<svg
   xmlns:dc="http://purl.org/dc/elements/1.1/"
   xmlns:cc="http://creativecommons.org/ns#"
   xmlns:rdf="http://www.w3.org/1999/02/22-rdf-syntax-ns#"
   xmlns:svg="http://www.w3.org/2000/svg"
   xmlns="http://www.w3.org/2000/svg"
   xmlns:sodipodi="http://sodipodi.sourceforge.net/DTD/sodipodi-0.dtd"
   xmlns:inkscape="http://www.inkscape.org/namespaces/inkscape"
   width="391.57849"
   height="105.29125"
   id="svg4430"
   version="1.1"
   inkscape:version="0.48.3.1 r9886"
   sodipodi:docname="New document 14">
  <defs
     id="defs4432" />
  <sodipodi:namedview
     id="base"
     pagecolor="#ffffff"
     bordercolor="#666666"
     borderopacity="1.0"
     inkscape:pageopacity="0.0"
     inkscape:pageshadow="2"
     inkscape:zoom="0.35"
     inkscape:cx="150.78925"
     inkscape:cy="175.50277"
     inkscape:document-units="px"
     inkscape:current-layer="layer1"
     showgrid="false"
     fit-margin-top="0"
     fit-margin-left="0"
     fit-margin-right="0"
     fit-margin-bottom="0"
     inkscape:window-width="472"
     inkscape:window-height="383"
     inkscape:window-x="169"
     inkscape:window-y="267"
     inkscape:window-maximized="0" />
  <metadata
     id="metadata4435">
    <rdf:RDF>
      <cc:Work
         rdf:about="">
        <dc:format>image/svg+xml</dc:format>
        <dc:type
           rdf:resource="http://purl.org/dc/dcmitype/StillImage" />
        <dc:title></dc:title>
      </cc:Work>
    </rdf:RDF>
  </metadata>
  <g
     inkscape:label="Layer 1"
     inkscape:groupmode="layer"
     id="layer1"
     transform="translate(-224.21075,-602.5737)">
    <g
       id="g3768"
       transform="matrix(1.25,0,0,-1.25,366.74663,645.61565)">
      <path
         d="m 0,0 c 0,4.938 1.068,8.654 3.204,11.146 2.137,2.493 5.53,3.739 10.184,3.739 4.653,0 8.689,-1.259 12.107,-3.776 0.047,-0.332 0.071,-0.818 0.071,-1.459 0,-0.641 -0.167,-1.697 -0.498,-3.17 C 24.735,5.009 24.285,3.822 23.714,2.92 l -5.982,0 C 16.878,4.534 16.426,6.054 16.379,7.479 15.81,7.573 15.334,7.621 14.956,7.621 13.15,7.621 11.868,7.122 11.108,6.125 10.349,5.127 9.97,3.324 9.97,0.713 l 0,-2.706 10.896,0 0,-6.552 -10.896,0 0,-20.155 c 3.561,-0.711 5.982,-1.637 7.263,-2.777 l -0.711,-5.482 -19.728,0 -0.711,5.482 c 0.665,0.901 1.97,1.709 3.917,2.422 l 0,20.51 -3.133,0 -0.784,4.914 c 1.043,0.949 2.35,1.494 3.917,1.638 L 0,0 z"
         style="fill:#ffffff;fill-opacity:1;fill-rule:nonzero;stroke:none"
         id="path3770"
         inkscape:connector-curvature="0" />
    </g>
    <g
       id="g3772"
       transform="matrix(1.25,0,0,-1.25,421.832,658.25495)">
      <path
         d="m 0,0 c -3.608,0 -6.102,-0.689 -7.477,-2.066 l 0,-16.309 c 3.845,-0.711 6.48,-1.708 7.905,-2.99 l -0.713,-5.483 -20.367,0 -0.712,5.483 c 0.664,0.9 1.969,1.709 3.917,2.422 l 0,19.797 c -1.663,0.57 -2.968,1.375 -3.917,2.42 l 0.712,5.486 c 2.61,0.568 4.96,0.853 7.05,0.853 2.089,0 3.821,-0.048 5.199,-0.142 l 0,-4.487 c 1.091,1.282 2.492,2.338 4.201,3.17 1.71,0.829 3.264,1.245 4.665,1.245 1.4,0 2.361,-0.118 2.884,-0.355 L 3.134,-0.215 C 2.184,-0.072 1.14,0 0,0"
         style="fill:#ffffff;fill-opacity:1;fill-rule:nonzero;stroke:none"
         id="path3774"
         inkscape:connector-curvature="0" />
    </g>
    <g
       id="g3776"
       transform="matrix(1.25,0,0,-1.25,444.12025,683.45015)">
      <path
         d="m 0,0 c 2.422,0 4.345,0.715 5.77,2.139 l 0,5.839 -4.987,0 c -3.418,0 -5.126,-1.306 -5.126,-3.915 0,-1.189 0.368,-2.164 1.105,-2.921 C -2.504,0.381 -1.423,0 0,0 m -12.817,23.645 c 0,0.712 0.024,1.47 0.072,2.279 4.414,2.373 9.162,3.56 14.241,3.56 5.08,0 8.725,-0.961 10.932,-2.884 2.208,-1.922 3.312,-5.117 3.312,-9.578 l 0,-15.169 c 1.66,-0.332 2.965,-0.737 3.916,-1.21 l 0,-6.196 c -2.421,-1.138 -5.887,-1.709 -10.397,-1.709 -0.476,1.233 -0.878,2.73 -1.21,4.486 -2.043,-2.993 -5.745,-4.486 -11.11,-4.486 -3.18,0 -5.898,0.924 -8.153,2.777 -2.256,1.851 -3.384,4.367 -3.384,7.548 0,3.181 1.057,5.686 3.169,7.515 2.113,1.826 5.259,2.741 9.437,2.741 l 7.762,0 0,3.417 c 0,3.705 -1.971,5.557 -5.912,5.557 -1.472,0 -2.682,-0.143 -3.63,-0.428 -0.097,-1.995 -0.381,-3.538 -0.856,-4.629 l -6.978,0 c -0.808,1.66 -1.211,3.797 -1.211,6.409"
         style="fill:#ffffff;fill-opacity:1;fill-rule:nonzero;stroke:none"
         id="path3778"
         inkscape:connector-curvature="0" />
    </g>
    <g
       id="g3780"
       transform="matrix(1.25,0,0,-1.25,504.37787,691.81445)">
      <path
         d="m 0,0 -12.605,18.444 7.834,10.183 c -0.807,0.475 -1.378,0.973 -1.709,1.495 l 0.71,5.485 15.668,0 0.713,-5.485 C 9.566,28.793 7.596,27.748 4.699,26.989 L -2.137,19.155 5.91,8.544 C 8.854,7.879 10.919,6.859 12.105,5.482 L 11.394,0 0,0 z m -26.422,50.562 c 2.66,0.616 5.128,0.924 7.407,0.924 2.279,0 4.202,-0.069 5.768,-0.213 l 0,-43.369 c 1.852,-0.713 3.157,-1.521 3.918,-2.422 L -10.041,0 -26.422,0 -27.133,5.482 c 0.663,0.901 1.969,1.709 3.916,2.422 l 0,34.752 c -1.662,0.571 -2.967,1.377 -3.916,2.422 l 0.711,5.484 z"
         style="fill:#ffffff;fill-opacity:1;fill-rule:nonzero;stroke:none"
         id="path3782"
         inkscape:connector-curvature="0" />
    </g>
    <g
       id="g3784"
       transform="matrix(1.25,0,0,-1.25,536.22475,636.08925)">
      <path
         d="m 0,0 0,-8.973 10.184,0 0,-5.983 -10.184,0 0,-18.017 c 0,-1.52 0.213,-2.625 0.641,-3.311 0.425,-0.69 1.447,-1.034 3.062,-1.034 1.611,0 3.348,0.357 5.199,1.069 l 2.137,-5.556 c -3.656,-1.852 -7.394,-2.775 -11.217,-2.775 -3.822,0 -6.409,0.816 -7.762,2.456 -1.354,1.638 -2.03,4.023 -2.03,7.156 l 0,20.012 -3.204,0 -0.783,4.345 c 0.758,0.9 2.324,1.802 4.7,2.707 0.569,3.89 1.922,6.525 4.059,7.904 L 0,0 z"
         style="fill:#ffffff;fill-opacity:1;fill-rule:nonzero;stroke:none"
         id="path3786"
         inkscape:connector-curvature="0" />
    </g>
    <g
       id="g3788"
       transform="matrix(1.25,0,0,-1.25,561.79725,641.16375)">
      <path
         d="m 0,0 c -3.963,0 -5.945,1.791 -5.945,5.376 0,3.585 1.982,5.377 5.945,5.377 3.963,0 5.947,-1.792 5.947,-5.377 C 5.947,1.791 3.963,0 0,0 m -8.082,-4.913 c 2.658,0.615 5.127,0.926 7.406,0.926 2.28,0 4.203,-0.073 5.77,-0.215 l 0,-28.414 c 1.849,-0.713 3.156,-1.522 3.916,-2.422 l -0.711,-5.483 -16.381,0 -0.711,5.483 c 0.664,0.9 1.969,1.709 3.916,2.422 l 0,19.797 c -1.662,0.57 -2.967,1.376 -3.916,2.421 l 0.711,5.485 z"
         style="fill:#ffffff;fill-opacity:1;fill-rule:nonzero;stroke:none"
         id="path3790"
         inkscape:connector-curvature="0" />
    </g>
    <g
       id="g3792"
       transform="matrix(1.25,0,0,-1.25,585.88175,669.20455)">
      <path
         d="m 0,0 c 0,-7.598 2.277,-11.396 6.834,-11.396 2.326,0 4.047,0.867 5.164,2.6 1.115,1.734 1.674,4.569 1.674,8.512 0,7.405 -2.326,11.108 -6.981,11.108 -2.277,0 -3.964,-0.819 -5.056,-2.457 C 0.543,6.729 0,3.939 0,0 m 6.301,-18.658 c -5.627,0 -9.793,1.493 -12.498,4.485 -2.707,2.991 -4.061,7.514 -4.061,13.568 0,6.052 1.508,10.682 4.524,13.886 3.013,3.205 7.345,4.807 12.996,4.807 5.65,0 9.838,-1.424 12.57,-4.274 2.729,-2.847 4.094,-7.298 4.094,-13.352 0,-6.052 -1.531,-10.754 -4.594,-14.101 -3.061,-3.347 -7.406,-5.019 -13.031,-5.019"
         style="fill:#ffffff;fill-opacity:1;fill-rule:nonzero;stroke:none"
         id="path3794"
         inkscape:connector-curvature="0" />
    </g>
    <g
       id="g3796"
       transform="matrix(1.25,0,0,-1.25,282.55225,611.37745)">
      <path
         d="m 0,0 -0.08,-0.014 0,-77.176 13.817,27.485 -5.273,-0.879 1.458,4.542 6.175,1.033 3.88,7.716 -7.655,-1.276 2.929,9.121 9.461,1.577 17.552,34.914 -0.13,-0.022 C 28.843,2.67 14.692,0.223 0,0"
         style="fill:#ffffff;fill-opacity:1;fill-rule:nonzero;stroke:none"
         id="path3798"
         inkscape:connector-curvature="0" />
    </g>
    <g
       id="g3800"
       transform="matrix(1.25,0,0,-1.25,277.04075,611.37745)">
      <path
         d="m 0,0 0.08,-0.014 0,-77.176 -13.817,27.485 5.273,-0.879 -1.458,4.542 -6.175,1.033 -3.88,7.716 7.655,-1.276 -2.929,9.121 -9.461,1.577 -17.552,34.914 0.13,-0.022 C -28.843,2.67 -14.692,0.223 0,0"
         style="fill:#ffffff;fill-opacity:1;fill-rule:nonzero;stroke:none"
         id="path3802"
         inkscape:connector-curvature="0" />
    </g>
  </g>
</svg>
