<?xml version="1.0" encoding="UTF-8" standalone="no"?>
<!-- Created with Inkscape (http://www.inkscape.org/) -->

<svg
   xmlns:dc="http://purl.org/dc/elements/1.1/"
   xmlns:cc="http://creativecommons.org/ns#"
   xmlns:rdf="http://www.w3.org/1999/02/22-rdf-syntax-ns#"
   xmlns:svg="http://www.w3.org/2000/svg"
   xmlns="http://www.w3.org/2000/svg"
   xmlns:sodipodi="http://sodipodi.sourceforge.net/DTD/sodipodi-0.dtd"
   xmlns:inkscape="http://www.inkscape.org/namespaces/inkscape"
   width="110.29125"
   height="105.29125"
   id="svg4430"
   version="1.1"
   inkscape:version="0.48.3.1 r9886"
   sodipodi:docname="New document 14">
  <defs
     id="defs4432" />
  <sodipodi:namedview
     id="base"
     pagecolor="currentColor"
     bordercolor="currentColor"
     borderopacity="1.0"
     inkscape:pageopacity="0.0"
     inkscape:pageshadow="2"
     inkscape:zoom="0.35"
     inkscape:cx="150.78925"
     inkscape:cy="175.50277"
     inkscape:document-units="px"
     inkscape:current-layer="layer1"
     showgrid="false"
     fit-margin-top="0"
     fit-margin-left="0"
     fit-margin-right="0"
     fit-margin-bottom="0"
     inkscape:window-width="472"
     inkscape:window-height="383"
     inkscape:window-x="169"
     inkscape:window-y="267"
     inkscape:window-maximized="0" />
  <metadata
     id="metadata4435">
    <rdf:RDF>
      <cc:Work
         rdf:about="">
        <dc:format>image/svg+xml</dc:format>
        <dc:type
           rdf:resource="http://purl.org/dc/dcmitype/StillImage" />
        <dc:title></dc:title>
      </cc:Work>
    </rdf:RDF>
  </metadata>
  <g
     inkscape:label="Layer 1"
     inkscape:groupmode="layer"
     id="layer1"
     transform="translate(-224.21075,-602.5737)">
    <g
       id="g3796"
       transform="matrix(1.25,0,0,-1.25,282.55225,611.37745)">
      <path
         d="m 0,0 -0.08,-0.014 0,-77.176 13.817,27.485 -5.273,-0.879 1.458,4.542 6.175,1.033 3.88,7.716 -7.655,-1.276 2.929,9.121 9.461,1.577 17.552,34.914 -0.13,-0.022 C 28.843,2.67 14.692,0.223 0,0"
         style="fill:currentColor;fill-opacity:1;fill-rule:nonzero;stroke:none"
         id="path3798"
         inkscape:connector-curvature="0" />
    </g>
    <g
       id="g3800"
       transform="matrix(1.25,0,0,-1.25,277.04075,611.37745)">
      <path
         d="m 0,0 0.08,-0.014 0,-77.176 -13.817,27.485 5.273,-0.879 -1.458,4.542 -6.175,1.033 -3.88,7.716 7.655,-1.276 -2.929,9.121 -9.461,1.577 -17.552,34.914 0.13,-0.022 C -28.843,2.67 -14.692,0.223 0,0"
         style="fill:currentColor;fill-opacity:1;fill-rule:nonzero;stroke:none"
         id="path3802"
         inkscape:connector-curvature="0" />
    </g>
  </g>
</svg>
